<svg width="1915.298096" height="1801.920654" viewBox="0 0 1915.3 1801.92" fill="none" xmlns="http://www.w3.org/2000/svg" xmlns:xlink="http://www.w3.org/1999/xlink">
	<desc>
			Created with Pixso.
	</desc>
	<defs/>
	<g opacity="0.150000">
		<g opacity="0.000000">
			<path id="Vector 83 copy_19" d="M481.98 291.76C432.99 316.99 347.22 404.42 396.12 552.21C457.24 736.95 652.86 824.82 744.02 993.2C811.3 1117.48 900.7 1442.69 757.78 1611.14" stroke="#F6F5EF" stroke-opacity="1.000000" stroke-width="1.458417"/>
		</g>
		<g opacity="0.052632">
			<path id="Vector 83 copy_18" d="M583.5 273.66C531.44 294.28 435 373.2 465.71 523.9C504.09 712.28 688.77 816.71 759.18 991.56C811.14 1120.62 860.53 1450.6 697.03 1604.66" stroke="#F6F5EF" stroke-opacity="1.000000" stroke-width="1.458417"/>
		</g>
		<g opacity="0.105263">
			<path id="Vector 83 copy_17" d="M685.82 262.74C631.24 278.53 525.12 348.09 537.29 500.07C552.5 690.04 724.29 809.92 773.18 989.35C809.26 1121.79 818.07 1452.98 635.67 1590.98" stroke="#F6F5EF" stroke-opacity="1.000000" stroke-width="1.458417"/>
		</g>
		<g opacity="0.157895">
			<path id="Vector 83 copy_16" d="M787.58 259.21C731.37 269.98 617.33 329.41 610.83 480.98C602.71 670.43 758.87 804.43 785.53 986.45C805.2 1120.79 773.42 1449.51 575.14 1569.91" stroke="#F6F5EF" stroke-opacity="1.000000" stroke-width="1.458417"/>
		</g>
		<g opacity="0.210526">
			<path id="Vector 83 copy_15" d="M1515.22 296.29C922.68 49.41 709.88 317.19 684.8 466.71C653.45 653.6 793.21 800.26 797.57 982.9C800.78 1117.71 728.7 1440.4 515.63 1541.91" stroke="#F6F5EF" stroke-opacity="1.000000" stroke-width="1.458417"/>
		</g>
		<g opacity="0.263158">
			<path id="Vector 83 copy_14" d="M1475.23 314.52C1036.3 126.99 802.32 311.35 758.94 457.15C704.72 639.4 826.35 797.1 808.32 978.32C795 1112.07 683.45 1425.15 458.18 1506.63" stroke="#F6F5EF" stroke-opacity="1.000000" stroke-width="1.458417"/>
		</g>
		<g opacity="0.315789">
			<path id="Vector 83 copy_13" d="M1466.54 324.38C1190.76 202.63 894 311.88 832.8 452.37C756.3 627.98 858.46 794.98 818.23 972.8C788.53 1104.06 638.73 1404.08 403.72 1464.64" stroke="#F6F5EF" stroke-opacity="1.000000" stroke-width="1.458417"/>
		</g>
		<g opacity="0.368421">
			<path id="Vector 83 copy_12" d="M1463.58 340.47C1249.36 251.82 984.13 318.64 905.78 452.28C807.84 619.33 889.41 793.8 827.42 966.28C781.67 1093.59 595.25 1377.28 353.09 1416.26" stroke="#F6F5EF" stroke-opacity="1.000000" stroke-width="1.458417"/>
		</g>
		<g opacity="0.421053">
			<path id="Vector 83 copy_11" d="M1488.65 374.1C1296.02 273.94 1071.97 331.44 977.32 456.77C859 613.43 919.09 793.46 836.02 958.71C774.71 1080.68 553.71 1344.93 307.04 1361.91" stroke="#F6F5EF" stroke-opacity="1.000000" stroke-width="1.458417"/>
		</g>
		<g opacity="0.473684">
			<path id="Vector 83 copy_10" d="M1506.12 404C1293.35 342.24 1156.76 350 1046.85 465.65C909.45 610.2 947.39 793.82 844.15 950.02C767.95 1065.31 514.8 1307.24 266.31 1302.04" stroke="#F6F5EF" stroke-opacity="1.000000" stroke-width="1.458417"/>
		</g>
		<g opacity="0.526316">
			<path id="Vector 83 copy_9" d="M1424.33 421.19C1372.49 396.73 1237.81 374 1113.82 478.69C958.85 609.56 974.23 794.75 851.94 940.19C761.69 1047.55 479.15 1264.49 231.58 1237.17" stroke="#F6F5EF" stroke-opacity="1.000000" stroke-width="1.458417"/>
		</g>
		<g opacity="0.578947">
			<path id="Vector 83 copy_8" d="M1494.98 466.42C1446.19 437.58 1314.44 403.06 1177.76 495.66C1006.91 611.4 999.54 796.13 859.55 929.23C756.23 1027.47 447.39 1217.06 203.45 1167.93" stroke="#F6F5EF" stroke-opacity="1.000000" stroke-width="1.458417"/>
		</g>
		<g opacity="0.631579">
			<path id="Vector 83 copy_7" d="M1558.6 515.56C1513.41 482.65 1386.05 436.72 1238.16 516.21C1053.29 615.57 1023.28 797.81 867.11 917.1C751.85 1005.16 420.09 1165.31 182.46 1094.92" stroke="#F6F5EF" stroke-opacity="1.000000" stroke-width="1.458417"/>
		</g>
		<g opacity="0.684211">
			<path id="Vector 83 copy_6" d="M1614.75 567.93C1573.64 531.32 1452.06 474.49 1294.57 540C1097.73 621.89 1045.39 799.64 874.75 903.82C748.82 980.71 397.78 1109.71 169.05 1018.81" stroke="#F6F5EF" stroke-opacity="1.000000" stroke-width="1.458417"/>
		</g>
		<g opacity="0.736842">
			<path id="Vector 83 copy_5" d="M1663.02 622.84C1626.45 582.93 1511.98 515.83 1346.64 566.65C1139.96 630.17 1065.86 801.47 882.63 889.39C747.4 954.29 380.92 1050.69 163.61 940.32" stroke="#F6F5EF" stroke-opacity="1.000000" stroke-width="1.458417"/>
		</g>
		<g opacity="0.789474">
			<path id="Vector 83 copy_4" d="M1703.1 679.54C1671.47 636.79 1565.37 560.16 1393.98 595.73C1179.73 640.19 1084.68 803.15 890.86 873.85C747.82 926.04 369.92 988.81 166.4 860.19" stroke="#F6F5EF" stroke-opacity="1.000000" stroke-width="1.458417"/>
		</g>
		<g opacity="0.842105">
			<path id="Vector 83 copy_3" d="M1734.79 737.28C1708.45 692.15 1611.89 606.88 1436.32 626.82C1216.85 651.73 1101.89 804.52 899.61 857.23C750.31 896.14 365.14 924.6 177.65 779.2" stroke="#F6F5EF" stroke-opacity="1.000000" stroke-width="1.458417"/>
		</g>
		<g opacity="0.894737">
			<path id="Vector 83 copy_2" d="M1757.96 795.49C1737.2 748.19 1651.23 654.64 1473.4 658.76C1251.13 663.92 1117.51 805.78 908.98 840.15C755.07 865.52 366.83 859.37 197.43 697.8" stroke="#F6F5EF" stroke-opacity="1.000000" stroke-width="1.458417"/>
		</g>
		<g opacity="0.947368">
			<path id="Vector 83 copy_1" d="M1772.49 853.24C1757.54 804.62 1683.11 704.43 1505 692.61C1282.38 677.83 1131.59 806.16 919.12 821.5C762.31 832.83 375.31 792.04 225.87 617.12" stroke="#F6F5EF" stroke-opacity="1.000000" stroke-width="1.458417"/>
		</g>
		<path id="Vector 83 copy" d="M1778.64 909.74C1769.66 860.29 1707.57 754.48 1531.12 726.87C1310.55 692.35 1144.23 805.87 930.12 802.07C772.1 799.26 390.53 724.31 262.67 537.86" stroke="#F6F5EF" stroke-opacity="1.000000" stroke-width="1.458417"/>
	</g>
</svg>
